<mxfile host="app.diagrams.net" modified="2021-01-16T11:05:32.106Z" agent="5.0 (Windows)" etag="90uhqJDiKYaPBlitFsqx" version="14.2.3" type="github">
  <diagram id="R2lEEEUBdFMjLlhIrx00" name="Page-1">
    <mxGraphModel dx="1038" dy="511" grid="1" gridSize="10" guides="1" tooltips="1" connect="1" arrows="1" fold="1" page="1" pageScale="1" pageWidth="850" pageHeight="1100" math="0" shadow="0" extFonts="Permanent Marker^https://fonts.googleapis.com/css?family=Permanent+Marker">
      <root>
        <mxCell id="0" />
        <mxCell id="1" parent="0" />
        <mxCell id="fksl9kIT6kCyxua9Oh5q-1" value="Adatbázis" style="shape=table;html=1;whiteSpace=wrap;startSize=30;container=1;collapsible=0;childLayout=tableLayout;fixedRows=1;rowLines=0;fontStyle=1;align=center;" vertex="1" parent="1">
          <mxGeometry x="90" y="120" width="170" height="110" as="geometry" />
        </mxCell>
        <mxCell id="fksl9kIT6kCyxua9Oh5q-2" value="" style="shape=partialRectangle;html=1;whiteSpace=wrap;collapsible=0;dropTarget=0;pointerEvents=0;fillColor=none;top=0;left=0;bottom=1;right=0;points=[[0,0.5],[1,0.5]];portConstraint=eastwest;" vertex="1" parent="fksl9kIT6kCyxua9Oh5q-1">
          <mxGeometry y="30" width="170" height="20" as="geometry" />
        </mxCell>
        <mxCell id="fksl9kIT6kCyxua9Oh5q-3" value="1" style="shape=partialRectangle;html=1;whiteSpace=wrap;connectable=0;fillColor=none;top=0;left=0;bottom=0;right=0;overflow=hidden;" vertex="1" parent="fksl9kIT6kCyxua9Oh5q-2">
          <mxGeometry width="38" height="20" as="geometry" />
        </mxCell>
        <mxCell id="fksl9kIT6kCyxua9Oh5q-4" value="&lt;b&gt;Név&lt;/b&gt;" style="shape=partialRectangle;html=1;whiteSpace=wrap;connectable=0;fillColor=none;top=0;left=0;bottom=0;right=0;align=left;spacingLeft=6;overflow=hidden;" vertex="1" parent="fksl9kIT6kCyxua9Oh5q-2">
          <mxGeometry x="38" width="132" height="20" as="geometry" />
        </mxCell>
        <mxCell id="fksl9kIT6kCyxua9Oh5q-5" value="" style="shape=partialRectangle;html=1;whiteSpace=wrap;collapsible=0;dropTarget=0;pointerEvents=0;fillColor=none;top=0;left=0;bottom=0;right=0;points=[[0,0.5],[1,0.5]];portConstraint=eastwest;" vertex="1" parent="fksl9kIT6kCyxua9Oh5q-1">
          <mxGeometry y="50" width="170" height="30" as="geometry" />
        </mxCell>
        <mxCell id="fksl9kIT6kCyxua9Oh5q-6" value="2" style="shape=partialRectangle;html=1;whiteSpace=wrap;connectable=0;fillColor=none;top=0;left=0;bottom=0;right=0;overflow=hidden;" vertex="1" parent="fksl9kIT6kCyxua9Oh5q-5">
          <mxGeometry width="38" height="30" as="geometry" />
        </mxCell>
        <mxCell id="fksl9kIT6kCyxua9Oh5q-7" value="Formátum" style="shape=partialRectangle;html=1;whiteSpace=wrap;connectable=0;fillColor=none;top=0;left=0;bottom=0;right=0;align=left;spacingLeft=6;overflow=hidden;" vertex="1" parent="fksl9kIT6kCyxua9Oh5q-5">
          <mxGeometry x="38" width="132" height="30" as="geometry" />
        </mxCell>
        <mxCell id="fksl9kIT6kCyxua9Oh5q-8" value="" style="shape=partialRectangle;html=1;whiteSpace=wrap;collapsible=0;dropTarget=0;pointerEvents=0;fillColor=none;top=0;left=0;bottom=0;right=0;points=[[0,0.5],[1,0.5]];portConstraint=eastwest;" vertex="1" parent="fksl9kIT6kCyxua9Oh5q-1">
          <mxGeometry y="80" width="170" height="30" as="geometry" />
        </mxCell>
        <mxCell id="fksl9kIT6kCyxua9Oh5q-9" value="" style="shape=partialRectangle;html=1;whiteSpace=wrap;connectable=0;fillColor=none;top=0;left=0;bottom=0;right=0;overflow=hidden;" vertex="1" parent="fksl9kIT6kCyxua9Oh5q-8">
          <mxGeometry width="38" height="30" as="geometry" />
        </mxCell>
        <mxCell id="fksl9kIT6kCyxua9Oh5q-10" value="" style="shape=partialRectangle;html=1;whiteSpace=wrap;connectable=0;fillColor=none;top=0;left=0;bottom=0;right=0;align=left;spacingLeft=6;overflow=hidden;" vertex="1" parent="fksl9kIT6kCyxua9Oh5q-8">
          <mxGeometry x="38" width="132" height="30" as="geometry" />
        </mxCell>
        <mxCell id="fksl9kIT6kCyxua9Oh5q-24" value="Regressziós modell" style="shape=table;html=1;whiteSpace=wrap;startSize=30;container=1;collapsible=0;childLayout=tableLayout;fixedRows=1;rowLines=0;fontStyle=1;align=center;" vertex="1" parent="1">
          <mxGeometry x="610" y="120" width="170" height="110" as="geometry" />
        </mxCell>
        <mxCell id="fksl9kIT6kCyxua9Oh5q-25" value="" style="shape=partialRectangle;html=1;whiteSpace=wrap;collapsible=0;dropTarget=0;pointerEvents=0;fillColor=none;top=0;left=0;bottom=1;right=0;points=[[0,0.5],[1,0.5]];portConstraint=eastwest;" vertex="1" parent="fksl9kIT6kCyxua9Oh5q-24">
          <mxGeometry y="30" width="170" height="20" as="geometry" />
        </mxCell>
        <mxCell id="fksl9kIT6kCyxua9Oh5q-26" value="1" style="shape=partialRectangle;html=1;whiteSpace=wrap;connectable=0;fillColor=none;top=0;left=0;bottom=0;right=0;overflow=hidden;" vertex="1" parent="fksl9kIT6kCyxua9Oh5q-25">
          <mxGeometry width="38" height="20" as="geometry" />
        </mxCell>
        <mxCell id="fksl9kIT6kCyxua9Oh5q-27" value="&lt;b&gt;Név&lt;/b&gt;" style="shape=partialRectangle;html=1;whiteSpace=wrap;connectable=0;fillColor=none;top=0;left=0;bottom=0;right=0;align=left;spacingLeft=6;overflow=hidden;" vertex="1" parent="fksl9kIT6kCyxua9Oh5q-25">
          <mxGeometry x="38" width="132" height="20" as="geometry" />
        </mxCell>
        <mxCell id="fksl9kIT6kCyxua9Oh5q-28" value="" style="shape=partialRectangle;html=1;whiteSpace=wrap;collapsible=0;dropTarget=0;pointerEvents=0;fillColor=none;top=0;left=0;bottom=0;right=0;points=[[0,0.5],[1,0.5]];portConstraint=eastwest;" vertex="1" parent="fksl9kIT6kCyxua9Oh5q-24">
          <mxGeometry y="50" width="170" height="30" as="geometry" />
        </mxCell>
        <mxCell id="fksl9kIT6kCyxua9Oh5q-29" value="2" style="shape=partialRectangle;html=1;whiteSpace=wrap;connectable=0;fillColor=none;top=0;left=0;bottom=0;right=0;overflow=hidden;" vertex="1" parent="fksl9kIT6kCyxua9Oh5q-28">
          <mxGeometry width="38" height="30" as="geometry" />
        </mxCell>
        <mxCell id="fksl9kIT6kCyxua9Oh5q-30" value="Tanulás/teszt arány" style="shape=partialRectangle;html=1;whiteSpace=wrap;connectable=0;fillColor=none;top=0;left=0;bottom=0;right=0;align=left;spacingLeft=6;overflow=hidden;" vertex="1" parent="fksl9kIT6kCyxua9Oh5q-28">
          <mxGeometry x="38" width="132" height="30" as="geometry" />
        </mxCell>
        <mxCell id="fksl9kIT6kCyxua9Oh5q-31" value="" style="shape=partialRectangle;html=1;whiteSpace=wrap;collapsible=0;dropTarget=0;pointerEvents=0;fillColor=none;top=0;left=0;bottom=0;right=0;points=[[0,0.5],[1,0.5]];portConstraint=eastwest;" vertex="1" parent="fksl9kIT6kCyxua9Oh5q-24">
          <mxGeometry y="80" width="170" height="30" as="geometry" />
        </mxCell>
        <mxCell id="fksl9kIT6kCyxua9Oh5q-32" value="3" style="shape=partialRectangle;html=1;whiteSpace=wrap;connectable=0;fillColor=none;top=0;left=0;bottom=0;right=0;overflow=hidden;" vertex="1" parent="fksl9kIT6kCyxua9Oh5q-31">
          <mxGeometry width="38" height="30" as="geometry" />
        </mxCell>
        <mxCell id="fksl9kIT6kCyxua9Oh5q-33" value="Betanulási modell" style="shape=partialRectangle;html=1;whiteSpace=wrap;connectable=0;fillColor=none;top=0;left=0;bottom=0;right=0;align=left;spacingLeft=6;overflow=hidden;" vertex="1" parent="fksl9kIT6kCyxua9Oh5q-31">
          <mxGeometry x="38" width="132" height="30" as="geometry" />
        </mxCell>
        <mxCell id="fksl9kIT6kCyxua9Oh5q-34" value="Szálláshely" style="shape=table;html=1;whiteSpace=wrap;startSize=30;container=1;collapsible=0;childLayout=tableLayout;fixedRows=1;rowLines=0;fontStyle=1;align=center;" vertex="1" parent="1">
          <mxGeometry x="330" y="10" width="170" height="500" as="geometry" />
        </mxCell>
        <mxCell id="fksl9kIT6kCyxua9Oh5q-35" value="" style="shape=partialRectangle;html=1;whiteSpace=wrap;collapsible=0;dropTarget=0;pointerEvents=0;fillColor=none;top=0;left=0;bottom=1;right=0;points=[[0,0.5],[1,0.5]];portConstraint=eastwest;" vertex="1" parent="fksl9kIT6kCyxua9Oh5q-34">
          <mxGeometry y="30" width="170" height="20" as="geometry" />
        </mxCell>
        <mxCell id="fksl9kIT6kCyxua9Oh5q-36" value="1" style="shape=partialRectangle;html=1;whiteSpace=wrap;connectable=0;fillColor=none;top=0;left=0;bottom=0;right=0;overflow=hidden;" vertex="1" parent="fksl9kIT6kCyxua9Oh5q-35">
          <mxGeometry width="38" height="20" as="geometry" />
        </mxCell>
        <mxCell id="fksl9kIT6kCyxua9Oh5q-37" value="&lt;b&gt;Azonosító&lt;/b&gt;" style="shape=partialRectangle;html=1;whiteSpace=wrap;connectable=0;fillColor=none;top=0;left=0;bottom=0;right=0;align=left;spacingLeft=6;overflow=hidden;" vertex="1" parent="fksl9kIT6kCyxua9Oh5q-35">
          <mxGeometry x="38" width="132" height="20" as="geometry" />
        </mxCell>
        <mxCell id="fksl9kIT6kCyxua9Oh5q-38" value="" style="shape=partialRectangle;html=1;whiteSpace=wrap;collapsible=0;dropTarget=0;pointerEvents=0;fillColor=none;top=0;left=0;bottom=0;right=0;points=[[0,0.5],[1,0.5]];portConstraint=eastwest;" vertex="1" parent="fksl9kIT6kCyxua9Oh5q-34">
          <mxGeometry y="50" width="170" height="30" as="geometry" />
        </mxCell>
        <mxCell id="fksl9kIT6kCyxua9Oh5q-39" value="2" style="shape=partialRectangle;html=1;whiteSpace=wrap;connectable=0;fillColor=none;top=0;left=0;bottom=0;right=0;overflow=hidden;" vertex="1" parent="fksl9kIT6kCyxua9Oh5q-38">
          <mxGeometry width="38" height="30" as="geometry" />
        </mxCell>
        <mxCell id="fksl9kIT6kCyxua9Oh5q-40" value="&lt;span&gt;Értékelés pontszám&lt;/span&gt;" style="shape=partialRectangle;html=1;whiteSpace=wrap;connectable=0;fillColor=none;top=0;left=0;bottom=0;right=0;align=left;spacingLeft=6;overflow=hidden;" vertex="1" parent="fksl9kIT6kCyxua9Oh5q-38">
          <mxGeometry x="38" width="132" height="30" as="geometry" />
        </mxCell>
        <mxCell id="fksl9kIT6kCyxua9Oh5q-41" value="" style="shape=partialRectangle;html=1;whiteSpace=wrap;collapsible=0;dropTarget=0;pointerEvents=0;fillColor=none;top=0;left=0;bottom=0;right=0;points=[[0,0.5],[1,0.5]];portConstraint=eastwest;" vertex="1" parent="fksl9kIT6kCyxua9Oh5q-34">
          <mxGeometry y="80" width="170" height="30" as="geometry" />
        </mxCell>
        <mxCell id="fksl9kIT6kCyxua9Oh5q-42" value="3" style="shape=partialRectangle;html=1;whiteSpace=wrap;connectable=0;fillColor=none;top=0;left=0;bottom=0;right=0;overflow=hidden;" vertex="1" parent="fksl9kIT6kCyxua9Oh5q-41">
          <mxGeometry width="38" height="30" as="geometry" />
        </mxCell>
        <mxCell id="fksl9kIT6kCyxua9Oh5q-43" value="Házigazdák száma" style="shape=partialRectangle;html=1;whiteSpace=wrap;connectable=0;fillColor=none;top=0;left=0;bottom=0;right=0;align=left;spacingLeft=6;overflow=hidden;" vertex="1" parent="fksl9kIT6kCyxua9Oh5q-41">
          <mxGeometry x="38" width="132" height="30" as="geometry" />
        </mxCell>
        <mxCell id="fksl9kIT6kCyxua9Oh5q-44" value="4" style="text;html=1;align=center;verticalAlign=middle;resizable=0;points=[];autosize=1;" vertex="1" parent="1">
          <mxGeometry x="340" y="120" width="20" height="20" as="geometry" />
        </mxCell>
        <mxCell id="fksl9kIT6kCyxua9Oh5q-47" value="Városrész" style="text;html=1;align=center;verticalAlign=middle;resizable=0;points=[];autosize=1;" vertex="1" parent="1">
          <mxGeometry x="370" y="120" width="70" height="20" as="geometry" />
        </mxCell>
        <mxCell id="fksl9kIT6kCyxua9Oh5q-48" value="5" style="text;html=1;align=center;verticalAlign=middle;resizable=0;points=[];autosize=1;" vertex="1" parent="1">
          <mxGeometry x="340" y="140" width="20" height="20" as="geometry" />
        </mxCell>
        <mxCell id="fksl9kIT6kCyxua9Oh5q-49" value="Szélességi kör" style="text;html=1;align=center;verticalAlign=middle;resizable=0;points=[];autosize=1;" vertex="1" parent="1">
          <mxGeometry x="370" y="140" width="90" height="20" as="geometry" />
        </mxCell>
        <mxCell id="fksl9kIT6kCyxua9Oh5q-50" value="6" style="text;html=1;align=center;verticalAlign=middle;resizable=0;points=[];autosize=1;" vertex="1" parent="1">
          <mxGeometry x="340" y="160" width="20" height="20" as="geometry" />
        </mxCell>
        <mxCell id="fksl9kIT6kCyxua9Oh5q-51" value="Hosszúsági kör" style="text;html=1;align=center;verticalAlign=middle;resizable=0;points=[];autosize=1;" vertex="1" parent="1">
          <mxGeometry x="365" y="160" width="100" height="20" as="geometry" />
        </mxCell>
        <mxCell id="fksl9kIT6kCyxua9Oh5q-52" value="7" style="text;html=1;align=center;verticalAlign=middle;resizable=0;points=[];autosize=1;" vertex="1" parent="1">
          <mxGeometry x="340" y="180" width="20" height="20" as="geometry" />
        </mxCell>
        <mxCell id="fksl9kIT6kCyxua9Oh5q-53" value="Ingatlan típus" style="text;html=1;align=center;verticalAlign=middle;resizable=0;points=[];autosize=1;" vertex="1" parent="1">
          <mxGeometry x="370" y="180" width="80" height="20" as="geometry" />
        </mxCell>
        <mxCell id="fksl9kIT6kCyxua9Oh5q-54" value="8" style="text;html=1;align=center;verticalAlign=middle;resizable=0;points=[];autosize=1;" vertex="1" parent="1">
          <mxGeometry x="340" y="200" width="20" height="20" as="geometry" />
        </mxCell>
        <mxCell id="fksl9kIT6kCyxua9Oh5q-55" value="Szobatípus" style="text;html=1;align=center;verticalAlign=middle;resizable=0;points=[];autosize=1;" vertex="1" parent="1">
          <mxGeometry x="370" y="200" width="70" height="20" as="geometry" />
        </mxCell>
        <mxCell id="fksl9kIT6kCyxua9Oh5q-56" value="9" style="text;html=1;align=center;verticalAlign=middle;resizable=0;points=[];autosize=1;" vertex="1" parent="1">
          <mxGeometry x="340" y="220" width="20" height="20" as="geometry" />
        </mxCell>
        <mxCell id="fksl9kIT6kCyxua9Oh5q-57" value="Férőhelyek száma" style="text;html=1;align=center;verticalAlign=middle;resizable=0;points=[];autosize=1;" vertex="1" parent="1">
          <mxGeometry x="370" y="220" width="110" height="20" as="geometry" />
        </mxCell>
        <mxCell id="fksl9kIT6kCyxua9Oh5q-58" value="10" style="text;html=1;align=center;verticalAlign=middle;resizable=0;points=[];autosize=1;" vertex="1" parent="1">
          <mxGeometry x="335" y="240" width="30" height="20" as="geometry" />
        </mxCell>
        <mxCell id="fksl9kIT6kCyxua9Oh5q-59" value="Fürdőszobák száma" style="text;html=1;align=center;verticalAlign=middle;resizable=0;points=[];autosize=1;" vertex="1" parent="1">
          <mxGeometry x="370" y="240" width="120" height="20" as="geometry" />
        </mxCell>
        <mxCell id="fksl9kIT6kCyxua9Oh5q-60" value="11" style="text;html=1;align=center;verticalAlign=middle;resizable=0;points=[];autosize=1;" vertex="1" parent="1">
          <mxGeometry x="335" y="260" width="30" height="20" as="geometry" />
        </mxCell>
        <mxCell id="fksl9kIT6kCyxua9Oh5q-61" value="12" style="text;html=1;align=center;verticalAlign=middle;resizable=0;points=[];autosize=1;" vertex="1" parent="1">
          <mxGeometry x="335" y="280" width="30" height="20" as="geometry" />
        </mxCell>
        <mxCell id="fksl9kIT6kCyxua9Oh5q-62" value="13" style="text;html=1;align=center;verticalAlign=middle;resizable=0;points=[];autosize=1;" vertex="1" parent="1">
          <mxGeometry x="335" y="300" width="30" height="20" as="geometry" />
        </mxCell>
        <mxCell id="fksl9kIT6kCyxua9Oh5q-66" value="14" style="text;html=1;align=center;verticalAlign=middle;resizable=0;points=[];autosize=1;" vertex="1" parent="1">
          <mxGeometry x="335" y="320" width="30" height="20" as="geometry" />
        </mxCell>
        <mxCell id="fksl9kIT6kCyxua9Oh5q-71" value="15" style="text;html=1;align=center;verticalAlign=middle;resizable=0;points=[];autosize=1;" vertex="1" parent="1">
          <mxGeometry x="335" y="340" width="30" height="20" as="geometry" />
        </mxCell>
        <mxCell id="fksl9kIT6kCyxua9Oh5q-72" value="16" style="text;html=1;align=center;verticalAlign=middle;resizable=0;points=[];autosize=1;" vertex="1" parent="1">
          <mxGeometry x="335" y="360" width="30" height="20" as="geometry" />
        </mxCell>
        <mxCell id="fksl9kIT6kCyxua9Oh5q-73" value="17" style="text;html=1;align=center;verticalAlign=middle;resizable=0;points=[];autosize=1;" vertex="1" parent="1">
          <mxGeometry x="335" y="380" width="30" height="20" as="geometry" />
        </mxCell>
        <mxCell id="fksl9kIT6kCyxua9Oh5q-74" value="Hálószobák száma" style="text;html=1;align=center;verticalAlign=middle;resizable=0;points=[];autosize=1;" vertex="1" parent="1">
          <mxGeometry x="365" y="260" width="120" height="20" as="geometry" />
        </mxCell>
        <mxCell id="fksl9kIT6kCyxua9Oh5q-75" value="Ágyak száma" style="text;html=1;align=center;verticalAlign=middle;resizable=0;points=[];autosize=1;" vertex="1" parent="1">
          <mxGeometry x="365" y="280" width="90" height="20" as="geometry" />
        </mxCell>
        <mxCell id="fksl9kIT6kCyxua9Oh5q-76" value="Vendégek száma" style="text;html=1;align=center;verticalAlign=middle;resizable=0;points=[];autosize=1;" vertex="1" parent="1">
          <mxGeometry x="365" y="300" width="110" height="20" as="geometry" />
        </mxCell>
        <mxCell id="fksl9kIT6kCyxua9Oh5q-77" value="Extra költség/ember" style="text;html=1;align=center;verticalAlign=middle;resizable=0;points=[];autosize=1;" vertex="1" parent="1">
          <mxGeometry x="365" y="320" width="120" height="20" as="geometry" />
        </mxCell>
        <mxCell id="fksl9kIT6kCyxua9Oh5q-78" value="Ágy típusa" style="text;html=1;align=center;verticalAlign=middle;resizable=0;points=[];autosize=1;" vertex="1" parent="1">
          <mxGeometry x="365" y="340" width="70" height="20" as="geometry" />
        </mxCell>
        <mxCell id="fksl9kIT6kCyxua9Oh5q-79" value="Elérhetőség pontszám" style="text;html=1;align=center;verticalAlign=middle;resizable=0;points=[];autosize=1;" vertex="1" parent="1">
          <mxGeometry x="365" y="360" width="130" height="20" as="geometry" />
        </mxCell>
        <mxCell id="fksl9kIT6kCyxua9Oh5q-80" value="Hozzászólások száma" style="text;html=1;align=center;verticalAlign=middle;resizable=0;points=[];autosize=1;" vertex="1" parent="1">
          <mxGeometry x="365" y="380" width="130" height="20" as="geometry" />
        </mxCell>
        <mxCell id="fksl9kIT6kCyxua9Oh5q-81" value="18" style="text;html=1;align=center;verticalAlign=middle;resizable=0;points=[];autosize=1;" vertex="1" parent="1">
          <mxGeometry x="335" y="400" width="30" height="20" as="geometry" />
        </mxCell>
        <mxCell id="fksl9kIT6kCyxua9Oh5q-82" value="19" style="text;html=1;align=center;verticalAlign=middle;resizable=0;points=[];autosize=1;" vertex="1" parent="1">
          <mxGeometry x="335" y="420" width="30" height="20" as="geometry" />
        </mxCell>
        <mxCell id="fksl9kIT6kCyxua9Oh5q-84" value="Pontszámok s. összege" style="text;html=1;align=center;verticalAlign=middle;resizable=0;points=[];autosize=1;" vertex="1" parent="1">
          <mxGeometry x="365" y="400" width="140" height="20" as="geometry" />
        </mxCell>
        <mxCell id="fksl9kIT6kCyxua9Oh5q-85" value="Hozzászólók értékelése" style="text;html=1;align=center;verticalAlign=middle;resizable=0;points=[];autosize=1;" vertex="1" parent="1">
          <mxGeometry x="365" y="420" width="140" height="20" as="geometry" />
        </mxCell>
        <mxCell id="fksl9kIT6kCyxua9Oh5q-86" value="20" style="text;html=1;align=center;verticalAlign=middle;resizable=0;points=[];autosize=1;" vertex="1" parent="1">
          <mxGeometry x="335" y="440" width="30" height="20" as="geometry" />
        </mxCell>
        <mxCell id="fksl9kIT6kCyxua9Oh5q-87" value="GDP" style="text;html=1;align=center;verticalAlign=middle;resizable=0;points=[];autosize=1;" vertex="1" parent="1">
          <mxGeometry x="370" y="440" width="40" height="20" as="geometry" />
        </mxCell>
        <mxCell id="fksl9kIT6kCyxua9Oh5q-88" value="21" style="text;html=1;align=center;verticalAlign=middle;resizable=0;points=[];autosize=1;" vertex="1" parent="1">
          <mxGeometry x="335" y="460" width="30" height="20" as="geometry" />
        </mxCell>
        <mxCell id="fksl9kIT6kCyxua9Oh5q-89" value="22" style="text;html=1;align=center;verticalAlign=middle;resizable=0;points=[];autosize=1;" vertex="1" parent="1">
          <mxGeometry x="335" y="480" width="30" height="20" as="geometry" />
        </mxCell>
        <mxCell id="fksl9kIT6kCyxua9Oh5q-90" value="Júliusi hőmérséklet" style="text;html=1;align=center;verticalAlign=middle;resizable=0;points=[];autosize=1;" vertex="1" parent="1">
          <mxGeometry x="370" y="460" width="110" height="20" as="geometry" />
        </mxCell>
        <mxCell id="fksl9kIT6kCyxua9Oh5q-91" value="Nyári csapadék" style="text;html=1;align=center;verticalAlign=middle;resizable=0;points=[];autosize=1;" vertex="1" parent="1">
          <mxGeometry x="370" y="480" width="100" height="20" as="geometry" />
        </mxCell>
        <mxCell id="fksl9kIT6kCyxua9Oh5q-92" value="" style="edgeStyle=entityRelationEdgeStyle;fontSize=12;html=1;endArrow=ERoneToMany;exitX=1;exitY=0.5;exitDx=0;exitDy=0;entryX=0;entryY=0.5;entryDx=0;entryDy=0;" edge="1" parent="1" source="fksl9kIT6kCyxua9Oh5q-2" target="fksl9kIT6kCyxua9Oh5q-35">
          <mxGeometry width="100" height="100" relative="1" as="geometry">
            <mxPoint x="370" y="310" as="sourcePoint" />
            <mxPoint x="470" y="210" as="targetPoint" />
          </mxGeometry>
        </mxCell>
        <mxCell id="fksl9kIT6kCyxua9Oh5q-94" value="" style="edgeStyle=entityRelationEdgeStyle;fontSize=12;html=1;endArrow=ERoneToMany;entryX=1;entryY=0.5;entryDx=0;entryDy=0;exitX=0;exitY=0.5;exitDx=0;exitDy=0;" edge="1" parent="1" source="fksl9kIT6kCyxua9Oh5q-25" target="fksl9kIT6kCyxua9Oh5q-35">
          <mxGeometry width="100" height="100" relative="1" as="geometry">
            <mxPoint x="370" y="310" as="sourcePoint" />
            <mxPoint x="470" y="210" as="targetPoint" />
          </mxGeometry>
        </mxCell>
      </root>
    </mxGraphModel>
  </diagram>
</mxfile>
